<svg width="600" height="600" viewBox="0 0 600 600" fill="none" xmlns="http://www.w3.org/2000/svg">
<path d="M473.63 263.705C482.825 236.462 479.661 206.632 464.952 181.859C442.836 143.856 398.366 124.31 354.944 133.507C335.629 112.033 307.869 99.8197 278.775 100.002C234.376 99.8962 194.995 128.097 181.335 169.782C152.818 175.544 128.205 193.161 113.801 218.122C91.5121 256.02 96.5896 303.784 126.364 336.295C117.168 363.538 120.333 393.368 135.041 418.141C157.157 456.144 201.628 475.69 245.049 466.493C264.364 487.967 292.124 500.18 321.219 499.998C365.642 500.11 405.041 471.891 418.688 430.177C447.205 424.415 471.818 406.798 486.222 381.837C508.487 343.939 503.398 296.198 473.63 263.705ZM321.255 473.843C303.483 473.867 286.272 467.728 272.624 456.497C273.238 456.167 274.317 455.579 275.02 455.156L355.737 409.15C359.861 406.833 362.4 402.5 362.37 397.819V285.538L396.489 304.978C396.852 305.154 397.102 305.501 397.15 305.901V398.889C397.102 440.232 363.162 473.749 321.255 473.843ZM158.021 405.057C149.118 389.881 145.911 372.099 148.957 354.823C149.559 355.176 150.601 355.811 151.352 356.235L232.069 402.241C236.163 404.605 241.235 404.605 245.329 402.241L343.877 346.097V384.971C343.901 385.377 343.716 385.759 343.388 386.006L261.79 432.488C225.46 453.139 179.035 440.867 158.021 405.057ZM136.787 231.188C145.649 215.993 159.648 204.357 176.329 198.324C176.329 199.012 176.287 200.223 176.287 201.07V293.076C176.258 297.757 178.79 302.085 182.914 304.401L281.462 360.539L247.344 379.973C247.004 380.196 246.569 380.231 246.193 380.079L164.589 333.555C128.319 312.822 115.881 267.039 136.787 231.188ZM417.103 295.552L318.549 239.408L352.668 219.98C353.007 219.757 353.442 219.721 353.818 219.88L435.423 266.363C471.764 287.073 484.208 332.932 463.218 368.783C454.338 383.954 440.351 395.579 423.682 401.635V306.877C423.724 302.202 421.209 297.874 417.103 295.552ZM451.061 245.124C450.459 244.759 449.416 244.136 448.665 243.712L367.942 197.706C363.848 195.348 358.782 195.348 354.682 197.706L256.134 253.85V214.976C256.11 214.57 256.295 214.188 256.623 213.941L338.222 167.494C374.575 146.814 421.036 159.121 441.996 194.99C450.852 210.149 454.058 227.883 451.061 245.124ZM237.582 314.415L203.457 294.975C203.094 294.799 202.843 294.452 202.796 294.052V201.07C202.825 159.668 236.861 126.122 278.828 126.151C296.576 126.163 313.757 132.302 327.393 143.503C326.779 143.833 325.706 144.421 324.997 144.844L244.28 190.85C240.156 193.161 237.618 197.495 237.647 202.175L237.582 314.415ZM256.116 274.989L300.009 249.975L343.901 274.971V324.982L300.009 349.978L256.116 324.982V274.989Z" fill="#BDBDBD"/>
</svg>
