<svg width="600" height="600" viewBox="0 0 600 600" fill="none" xmlns="http://www.w3.org/2000/svg">
<g clip-path="url(#clip0_420_59)">
<g clip-path="url(#clip1_420_59)">
<path d="M497.693 380L502.471 391.985H505.092L500.314 380H497.693ZM492.15 387.242L493.785 383.03L495.42 387.242H492.15ZM492.415 380L487.637 391.985H490.309L491.286 389.468H496.284L497.261 391.985H499.932L495.155 380H492.415Z" fill="#C4C4C4"/>
</g>
<path fill-rule="evenodd" clip-rule="evenodd" d="M344.678 383.35C348.798 383.35 352.908 383.35 357.028 383.35C356.948 411.27 356.948 439.193 357.028 467.12C352.908 467.07 348.788 467.12 344.668 467.12C344.728 439.207 344.728 411.297 344.668 383.39L344.678 383.35Z" fill="#BDBDBD"/>
<path fill-rule="evenodd" clip-rule="evenodd" d="M306.098 423.24C302.726 424.056 299.722 425.97 297.558 428.68C292.078 435.42 292.218 446.18 298.178 452.59C299.856 454.508 301.997 455.966 304.397 456.823C306.797 457.681 309.377 457.911 311.891 457.491C314.405 457.071 316.77 456.016 318.761 454.425C320.752 452.834 322.304 450.76 323.268 448.4C326.268 441.49 325.268 432.62 319.838 427.15C318.083 425.363 315.894 424.063 313.485 423.377C311.076 422.692 308.53 422.644 306.098 423.24ZM294.868 415.62C301.398 411.55 309.868 410.23 317.068 413.37C319.748 414.37 321.878 416.37 324.018 418.21C324.078 416.61 324.078 415.01 324.078 413.4H335.928C335.928 430.3 335.928 447.197 335.928 464.09C335.928 471.09 334.738 478.35 330.688 484.18C327.054 489.33 321.534 492.838 315.328 493.94C309.468 495.187 303.37 494.65 297.818 492.4C291.33 489.511 286.173 484.279 283.378 477.75C286.958 476.17 290.608 474.75 294.188 473.18C296.188 477.65 299.938 481.59 304.818 482.87C310.318 484.15 316.908 482.95 320.558 478.31C324.208 473.67 324.258 467.65 323.998 462.13C321.289 465.024 317.825 467.102 313.998 468.13C305.378 470.31 295.998 467.13 289.798 460.91C286.678 457.825 284.298 454.073 282.835 449.936C281.373 445.8 280.866 441.385 281.353 437.025C281.84 432.664 283.308 428.471 285.647 424.758C287.985 421.046 291.135 417.912 294.858 415.59L294.868 415.62Z" fill="#BDBDBD"/>
<path fill-rule="evenodd" clip-rule="evenodd" d="M181.098 423.2C177.07 424.09 173.541 426.501 171.248 429.93C166.708 436.73 167.248 446.69 172.958 452.69C174.798 454.646 177.106 456.1 179.664 456.916C182.222 457.731 184.946 457.881 187.578 457.35C190.785 456.695 193.713 455.072 195.968 452.7C202.478 445.86 202.308 433.8 195.458 427.25C193.58 425.45 191.288 424.139 188.784 423.432C186.28 422.726 183.641 422.646 181.098 423.2ZM181.448 411.79C186.14 411.287 190.884 411.927 195.274 413.657C199.664 415.386 203.57 418.153 206.658 421.72C214.878 431.36 215.448 446.49 208.138 456.8C205.766 460.151 202.696 462.949 199.141 465.001C195.585 467.054 191.627 468.312 187.538 468.69C179.884 469.518 172.212 467.301 166.178 462.52C163.12 459.967 160.62 456.813 158.831 453.253C157.043 449.693 156.005 445.804 155.782 441.827C155.558 437.849 156.155 433.868 157.534 430.131C158.913 426.394 161.045 422.979 163.798 420.1C168.537 415.363 174.778 412.424 181.448 411.79Z" fill="#BDBDBD"/>
<path fill-rule="evenodd" clip-rule="evenodd" d="M378.738 428.95C376.548 432 375.452 435.7 375.629 439.45C384.229 435.91 392.815 432.344 401.388 428.75C400.52 427.028 399.212 425.566 397.596 424.512C395.98 423.459 394.115 422.851 392.188 422.75C389.6 422.548 387.004 423.014 384.648 424.106C382.293 425.197 380.258 426.875 378.738 428.98V428.95ZM370.858 419.95C374.155 416.446 378.346 413.908 382.979 412.609C387.611 411.311 392.51 411.301 397.148 412.58C403.588 414.38 408.898 419.11 412.238 424.82C413.828 427.36 414.748 430.22 415.978 432.94C403.288 438.39 390.468 443.55 377.718 448.86C379.259 452.317 382.048 455.064 385.528 456.55C388.161 457.586 391.016 457.927 393.818 457.54C396.62 457.153 399.275 456.051 401.528 454.34C403.153 453.008 404.592 451.464 405.808 449.75C409.008 451.91 412.238 454.05 415.448 456.21C413.006 459.808 409.779 462.805 406.012 464.977C402.244 467.148 398.034 468.438 393.696 468.749C389.359 469.06 385.007 468.384 380.969 466.772C376.93 465.159 373.309 462.653 370.379 459.44C360.709 448.63 360.998 430.52 370.888 419.95H370.858Z" fill="#BDBDBD"/>
<path fill-rule="evenodd" clip-rule="evenodd" d="M243.818 423.2C240.704 423.894 237.873 425.516 235.698 427.85C229.418 434.52 229.478 446.101 235.788 452.741C237.285 454.323 239.095 455.579 241.102 456.426C243.109 457.274 245.27 457.697 247.449 457.667C249.627 457.637 251.776 457.155 253.759 456.252C255.741 455.349 257.515 454.044 258.968 452.42C265.208 445.54 264.968 433.69 258.188 427.24C256.307 425.443 254.011 424.137 251.505 423.439C248.998 422.741 246.358 422.673 243.818 423.24V423.2ZM243.098 411.96C247.632 411.284 252.261 411.691 256.607 413.15C260.953 414.608 264.891 417.076 268.098 420.35C277.518 429.95 278.438 446.35 270.518 457.14C268.152 460.387 265.121 463.091 261.628 465.074C258.134 467.057 254.258 468.273 250.258 468.64C242.807 469.44 235.334 467.342 229.388 462.78C224.949 459.33 221.627 454.645 219.841 449.313C218.054 443.982 217.882 438.241 219.347 432.812C220.811 427.383 223.847 422.508 228.073 418.798C232.298 415.089 237.526 412.71 243.098 411.96Z" fill="#BDBDBD"/>
<path fill-rule="evenodd" clip-rule="evenodd" d="M78.3982 392.891C82.7512 388.637 87.9172 385.305 93.5872 383.094C99.2573 380.883 105.315 379.837 111.398 380.021C122.334 380.151 132.792 384.521 140.568 392.21C137.708 394.997 134.885 397.82 132.098 400.68C125.909 394.89 117.682 391.78 109.209 392.029C100.737 392.278 92.7065 395.866 86.8682 402.01C83.6007 405.536 81.1468 409.736 79.6798 414.314C78.2127 418.892 77.7682 423.736 78.3776 428.504C78.9869 433.272 80.6354 437.849 83.2066 441.91C85.7778 445.972 89.209 449.42 93.2582 452.01C100.618 456.66 109.848 457.74 118.258 455.89C124.207 454.543 129.577 451.347 133.598 446.76C137.018 442.76 138.598 437.61 139.248 432.5C129.558 432.5 119.868 432.5 110.178 432.5C110.178 428.5 110.178 424.43 110.178 420.39H150.988C152.698 430.53 151.138 441.44 145.838 450.39C143.07 454.764 139.468 458.548 135.236 461.529C131.005 464.509 126.228 466.627 121.178 467.76C112.372 469.755 103.182 469.217 94.6682 466.21C83.5543 462.17 74.4415 453.975 69.2482 443.35C65.1309 434.87 63.8949 425.277 65.7282 416.03C67.5051 407.222 71.9248 399.163 78.3982 392.93V392.891Z" fill="#BDBDBD"/>
<path fill-rule="evenodd" clip-rule="evenodd" d="M524.878 386.71H535.098V467.61H524.878V386.71Z" fill="#BDBDBD"/>
<path fill-rule="evenodd" clip-rule="evenodd" d="M466.239 435.76H492.239L479.239 400.53L466.239 435.76ZM485.469 386.71L515.469 467.62H503.969L495.969 445.96H462.479L454.479 467.62H442.999L472.999 386.71H485.469Z" fill="#BDBDBD"/>
<g clip-path="url(#clip2_420_59)">
<path fill-rule="evenodd" clip-rule="evenodd" d="M383.337 120.832C387.453 120.828 391.477 122.047 394.901 124.334C398.325 126.621 400.994 129.873 402.572 133.679C404.149 137.486 404.564 141.675 403.763 145.717C402.962 149.759 400.982 153.473 398.073 156.388C395.163 159.303 391.456 161.289 387.419 162.094C383.383 162.899 379.198 162.487 375.395 160.911C371.592 159.335 368.342 156.665 366.055 153.239C363.768 149.813 362.547 145.784 362.547 141.663C362.547 136.141 364.737 130.845 368.635 126.939C372.533 123.033 377.821 120.836 383.337 120.832Z" fill="#BDBDBD"/>
<path fill-rule="evenodd" clip-rule="evenodd" d="M383.337 230.608C387.453 230.605 391.477 231.823 394.901 234.11C398.325 236.397 400.994 239.65 402.572 243.456C404.149 247.262 404.564 251.451 403.763 255.493C402.962 259.535 400.982 263.249 398.073 266.164C395.163 269.079 391.456 271.065 387.419 271.87C383.383 272.675 379.198 272.264 375.395 270.688C371.592 269.111 368.342 266.441 366.055 263.015C363.768 259.589 362.547 255.561 362.547 251.44C362.547 245.918 364.737 240.622 368.635 236.716C372.533 232.809 377.821 230.612 383.337 230.608Z" fill="#BDBDBD"/>
<path fill-rule="evenodd" clip-rule="evenodd" d="M383.336 175.728C387.454 175.725 391.481 176.945 394.906 179.234C398.331 181.524 401 184.779 402.576 188.588C404.152 192.398 404.564 196.589 403.759 200.633C402.954 204.676 400.968 208.39 398.054 211.303C395.139 214.216 391.427 216.198 387.387 216.997C383.347 217.796 379.161 217.377 375.359 215.793C371.557 214.209 368.31 211.531 366.029 208.098C363.748 204.665 362.536 200.632 362.546 196.509C362.546 190.987 364.736 185.691 368.635 181.784C372.533 177.878 377.821 175.681 383.336 175.677V175.728Z" fill="#BDBDBD"/>
<path fill-rule="evenodd" clip-rule="evenodd" d="M336.766 95.6579C340.359 95.6545 343.873 96.7186 346.861 98.7155C349.85 100.712 352.18 103.552 353.556 106.876C354.932 110.199 355.292 113.856 354.59 117.385C353.889 120.913 352.158 124.154 349.616 126.696C347.074 129.239 343.835 130.969 340.31 131.668C336.786 132.367 333.133 132.003 329.815 130.623C326.497 129.242 323.663 126.907 321.671 123.912C319.679 120.918 318.62 117.399 318.626 113.802C318.631 108.987 320.544 104.37 323.944 100.965C327.345 97.5601 331.956 95.6452 336.766 95.6406V95.6579Z" fill="#A3A3A3"/>
<path fill-rule="evenodd" clip-rule="evenodd" d="M336.663 261.124C340.255 261.12 343.767 262.183 346.755 264.179C349.743 266.174 352.073 269.012 353.45 272.333C354.826 275.655 355.188 279.31 354.49 282.838C353.791 286.365 352.063 289.606 349.525 292.15C346.986 294.694 343.751 296.427 340.229 297.13C336.706 297.832 333.054 297.474 329.736 296.098C326.417 294.723 323.58 292.393 321.585 289.403C319.589 286.413 318.523 282.898 318.523 279.302C318.523 274.484 320.434 269.863 323.835 266.454C327.237 263.045 331.85 261.128 336.663 261.124Z" fill="#A3A3A3"/>
<path fill-rule="evenodd" clip-rule="evenodd" d="M336.663 206.278C340.255 206.275 343.767 207.338 346.755 209.334C349.743 211.329 352.073 214.167 353.45 217.488C354.826 220.81 355.188 224.465 354.49 227.993C353.791 231.52 352.063 234.761 349.525 237.305C346.986 239.849 343.751 241.582 340.229 242.284C336.706 242.987 333.054 242.628 329.736 241.253C326.417 239.878 323.58 237.547 321.585 234.558C319.589 231.568 318.523 228.053 318.523 224.457C318.523 219.638 320.434 215.017 323.835 211.609C327.237 208.2 331.85 206.283 336.663 206.278Z" fill="#A3A3A3"/>
<path fill-rule="evenodd" clip-rule="evenodd" d="M336.663 150.399C340.255 150.396 343.768 151.46 346.757 153.456C349.745 155.452 352.075 158.291 353.451 161.613C354.828 164.936 355.189 168.592 354.489 172.12C353.789 175.648 352.059 178.888 349.519 181.432C346.978 183.975 343.742 185.707 340.218 186.408C336.694 187.108 333.042 186.747 329.724 185.369C326.405 183.991 323.57 181.658 321.576 178.666C319.582 175.674 318.52 172.157 318.523 168.561C318.523 163.744 320.435 159.125 323.836 155.719C327.238 152.313 331.852 150.399 336.663 150.399Z" fill="#A3A3A3"/>
<path fill-rule="evenodd" clip-rule="evenodd" d="M290.007 72C293.029 72 295.984 72.8974 298.497 74.5787C301.01 76.2599 302.969 78.6496 304.126 81.4455C305.283 84.2413 305.585 87.3178 304.996 90.2859C304.406 93.254 302.95 95.9803 300.813 98.1201C298.676 100.26 295.953 101.717 292.988 102.308C290.024 102.898 286.951 102.595 284.158 101.437C281.366 100.279 278.979 98.3177 277.3 95.8015C275.62 93.2853 274.724 90.327 274.724 87.3008C274.724 83.2428 276.334 79.351 279.2 76.4815C282.066 73.612 285.953 72 290.007 72Z" fill="#BDBDBD"/>
<path fill-rule="evenodd" clip-rule="evenodd" d="M290.007 290.433C293.03 290.433 295.985 291.331 298.499 293.013C301.013 294.695 302.971 297.086 304.127 299.883C305.284 302.679 305.585 305.757 304.994 308.725C304.403 311.694 302.946 314.42 300.807 316.559C298.668 318.699 295.943 320.154 292.978 320.743C290.012 321.331 286.939 321.026 284.146 319.865C281.354 318.704 278.969 316.74 277.291 314.222C275.614 311.704 274.721 308.744 274.724 305.717C274.724 303.708 275.12 301.719 275.888 299.864C276.656 298.008 277.782 296.323 279.201 294.903C280.621 293.484 282.306 292.359 284.16 291.592C286.014 290.824 288.001 290.431 290.007 290.433Z" fill="#BDBDBD"/>
<path fill-rule="evenodd" clip-rule="evenodd" d="M290.007 235.657C293.025 235.66 295.975 236.559 298.483 238.241C300.991 239.922 302.945 242.311 304.098 245.104C305.25 247.897 305.55 250.969 304.959 253.933C304.368 256.896 302.913 259.618 300.778 261.754C298.642 263.889 295.922 265.343 292.961 265.932C290.001 266.52 286.932 266.216 284.144 265.059C281.355 263.902 278.972 261.943 277.296 259.43C275.619 256.917 274.724 253.962 274.724 250.94C274.724 248.932 275.12 246.943 275.888 245.088C276.656 243.232 277.782 241.547 279.201 240.127C280.621 238.708 282.306 237.582 284.16 236.815C286.014 236.048 288.001 235.654 290.007 235.657Z" fill="#BDBDBD"/>
<path fill-rule="evenodd" clip-rule="evenodd" d="M290.007 181.156C293.029 181.156 295.984 182.054 298.497 183.735C301.01 185.416 302.969 187.806 304.126 190.602C305.283 193.398 305.585 196.474 304.996 199.442C304.406 202.41 302.95 205.137 300.813 207.276C298.676 209.416 295.953 210.874 292.988 211.464C290.024 212.054 286.951 211.751 284.158 210.593C281.366 209.435 278.979 207.474 277.3 204.958C275.62 202.442 274.724 199.483 274.724 196.457C274.722 194.447 275.116 192.456 275.883 190.599C276.65 188.742 277.776 187.054 279.195 185.633C280.615 184.211 282.3 183.084 284.156 182.316C286.011 181.548 287.999 181.154 290.007 181.156Z" fill="#BDBDBD"/>
<path fill-rule="evenodd" clip-rule="evenodd" d="M290.007 126.552C293.025 126.556 295.975 127.455 298.483 129.136C300.991 130.818 302.945 133.206 304.098 135.999C305.25 138.792 305.55 141.864 304.959 144.828C304.368 147.792 302.913 150.513 300.778 152.649C298.642 154.785 295.922 156.239 292.961 156.827C290.001 157.415 286.932 157.112 284.144 155.954C281.355 154.797 278.972 152.838 277.296 150.325C275.619 147.812 274.724 144.858 274.724 141.836C274.724 139.827 275.12 137.839 275.888 135.983C276.656 134.128 277.782 132.442 279.201 131.023C280.621 129.603 282.306 128.478 284.16 127.711C286.014 126.944 288.001 126.55 290.007 126.552Z" fill="#BDBDBD"/>
<path fill-rule="evenodd" clip-rule="evenodd" d="M242.782 101.171C245.41 101.171 247.979 101.952 250.164 103.413C252.349 104.875 254.051 106.952 255.057 109.383C256.063 111.814 256.326 114.488 255.813 117.069C255.3 119.649 254.035 122.019 252.177 123.879C250.319 125.74 247.952 127.007 245.374 127.52C242.797 128.033 240.126 127.77 237.698 126.763C235.27 125.756 233.195 124.051 231.735 121.864C230.275 119.676 229.496 117.104 229.496 114.473C229.494 112.726 229.836 110.995 230.503 109.38C231.17 107.765 232.148 106.298 233.382 105.062C234.617 103.827 236.082 102.847 237.695 102.179C239.308 101.512 241.037 101.169 242.782 101.171Z" fill="#BDBDBD"/>
<path fill-rule="evenodd" clip-rule="evenodd" d="M242.782 265.259C245.41 265.259 247.979 266.039 250.164 267.501C252.349 268.962 254.051 271.04 255.057 273.47C256.063 275.901 256.326 278.576 255.813 281.156C255.3 283.736 254.035 286.106 252.177 287.967C250.319 289.827 247.952 291.094 245.374 291.607C242.797 292.121 240.126 291.857 237.698 290.85C235.27 289.844 233.195 288.139 231.735 285.951C230.275 283.764 229.496 281.192 229.496 278.561C229.496 275.033 230.896 271.649 233.388 269.155C235.879 266.66 239.259 265.259 242.782 265.259Z" fill="#BDBDBD"/>
<path fill-rule="evenodd" clip-rule="evenodd" d="M242.782 211.086C245.41 211.086 247.979 211.866 250.164 213.328C252.349 214.789 254.051 216.867 255.057 219.298C256.063 221.728 256.326 224.403 255.813 226.983C255.3 229.563 254.035 231.934 252.177 233.794C250.319 235.654 247.952 236.921 245.374 237.434C242.797 237.948 240.126 237.684 237.698 236.678C235.27 235.671 233.195 233.966 231.735 231.778C230.275 229.591 229.496 227.019 229.496 224.388C229.496 220.86 230.896 217.477 233.388 214.982C235.879 212.487 239.259 211.086 242.782 211.086Z" fill="#BDBDBD"/>
<path fill-rule="evenodd" clip-rule="evenodd" d="M242.782 155.327C245.411 155.327 247.98 156.108 250.165 157.57C252.351 159.033 254.054 161.111 255.059 163.543C256.064 165.974 256.326 168.65 255.812 171.231C255.298 173.811 254.031 176.182 252.171 178.041C250.311 179.901 247.942 181.166 245.364 181.678C242.785 182.189 240.113 181.923 237.686 180.914C235.259 179.904 233.185 178.197 231.727 176.007C230.269 173.817 229.493 171.244 229.496 168.612C229.496 166.866 229.84 165.137 230.508 163.524C231.176 161.911 232.155 160.446 233.389 159.212C234.623 157.978 236.087 157 237.699 156.333C239.311 155.667 241.038 155.325 242.782 155.327Z" fill="#BDBDBD"/>
<path fill-rule="evenodd" clip-rule="evenodd" d="M195.558 130.395C197.746 130.395 199.886 131.044 201.706 132.262C203.526 133.479 204.944 135.209 205.781 137.234C206.619 139.258 206.838 141.486 206.411 143.635C205.984 145.784 204.93 147.759 203.383 149.308C201.835 150.858 199.863 151.913 197.717 152.34C195.57 152.768 193.345 152.548 191.323 151.71C189.301 150.871 187.573 149.451 186.357 147.629C185.141 145.807 184.492 143.665 184.492 141.474C184.492 138.535 185.658 135.717 187.733 133.64C189.808 131.562 192.623 130.395 195.558 130.395Z" fill="#BDBDBD"/>
<path fill-rule="evenodd" clip-rule="evenodd" d="M195.558 240.309C197.746 240.309 199.886 240.959 201.706 242.176C203.526 243.394 204.944 245.124 205.781 247.149C206.619 249.173 206.838 251.401 206.411 253.55C205.984 255.699 204.93 257.673 203.383 259.223C201.835 260.772 199.863 261.827 197.717 262.255C195.57 262.682 193.345 262.463 191.323 261.624C189.301 260.786 187.573 259.366 186.357 257.544C185.141 255.722 184.492 253.58 184.492 251.388C184.492 248.45 185.658 245.632 187.733 243.554C189.808 241.476 192.623 240.309 195.558 240.309Z" fill="#BDBDBD"/>
<path fill-rule="evenodd" clip-rule="evenodd" d="M195.558 185.429C197.746 185.429 199.886 186.079 201.706 187.296C203.526 188.514 204.944 190.244 205.781 192.269C206.619 194.293 206.838 196.521 206.411 198.67C205.984 200.819 204.93 202.793 203.383 204.343C201.835 205.892 199.863 206.947 197.717 207.375C195.57 207.802 193.345 207.583 191.323 206.744C189.301 205.906 187.573 204.486 186.357 202.664C185.141 200.842 184.492 198.7 184.492 196.508C184.492 193.57 185.658 190.752 187.733 188.674C189.808 186.596 192.623 185.429 195.558 185.429Z" fill="#BDBDBD"/>
</g>
</g>
<defs>
<clipPath id="clip0_420_59">
<rect width="600" height="600" fill="white"/>
</clipPath>
<clipPath id="clip1_420_59">
<rect width="17.52" height="12" fill="white" transform="translate(487.604 380)"/>
</clipPath>
<clipPath id="clip2_420_59">
<rect width="1098" height="249" fill="white" transform="translate(184.492 72)"/>
</clipPath>
</defs>
</svg>
