<svg width="601" height="600" viewBox="0 0 601 600" fill="none" xmlns="http://www.w3.org/2000/svg">
<g clip-path="url(#clip0_411_14)">
<path d="M498.089 380L502.867 391.985H505.487L500.709 380H498.089ZM492.545 387.242L494.18 383.03L495.815 387.242H492.545ZM492.81 380L488.033 391.985H490.704L491.681 389.468H496.679L497.656 391.985H500.328L495.55 380H492.81Z" fill="#C4C4C4"/>
</g>
<path d="M339.743 122.538L481.246 477.462H558.845L417.342 122.538H339.743ZM175.579 337.013L223.998 212.283L272.417 337.013H175.579ZM183.427 122.538L41.9463 477.462H121.056L149.99 402.927H298.009L326.939 477.462H406.047L264.566 122.538H183.427Z" fill="#BDBDBD"/>
<defs>
<clipPath id="clip0_411_14">
<rect width="17.52" height="12" fill="white" transform="translate(488 380)"/>
</clipPath>
</defs>
</svg>
